<svg viewBox="0 0 84 84" fill="none" xmlns="http://www.w3.org/2000/svg">
  <path
    d="M42 84C18.8403 84 0 65.1583 0 42.0031C0 18.8417 18.8403 0 42 0C65.1597 0 84 18.8417 84 42.0031C83.9939 65.1583 65.1535 84 42 84ZM42 3.0767C20.5385 3.0767 3.07647 20.54 3.07647 42.0031C3.07647 63.4661 20.5385 80.9295 42 80.9295C63.4615 80.9295 80.9235 63.4661 80.9235 42.0031C80.9174 20.54 63.4615 3.0767 42 3.0767Z"
    fill="white"/>
  <path
    d="M30.2656 42.0032V27.8996C30.2656 25.2414 33.1391 23.5861 35.4403 24.9091L47.6538 31.9609L59.8674 39.0127C62.1686 40.3418 62.1686 43.6585 59.8674 44.9876L47.6538 52.0394L35.4403 59.0912C33.1391 60.4203 30.2656 58.7589 30.2656 56.1006V42.0032Z"
    fill="white"/>
</svg>
