<svg fill="none" viewBox="0 0 125 40"
  xmlns="http://www.w3.org/2000/svg">
  <path d="m91.9009 11.863-6.9798 16.714h-4.5654l-3.424-13.3624c-.2195-.8379-.3951-1.1025-1.0097-1.4553-1.3524-.6539-2.7838-1.1282-4.2581-1.4112l.0878-.4851h7.331c.4795.0021.9424.1768 1.3048.4923s.6003.751.6706 1.2276l1.7998 9.6579 4.4776-11.3778zm17.8661 11.2455c0-4.41-6.058-4.6746-6.014-6.615 0-.6174.571-1.2348 1.844-1.4112 1.461-.1364 2.931.1225 4.258.7497l.746-3.528c-1.288-.497-2.658-.7512-4.038-.7497-4.258 0-7.2433 2.2932-7.2872 5.5125-.0439 2.4255 2.1512 3.7485 3.7752 4.5423s2.239 1.3671 2.239 2.0727c0 1.1025-1.361 1.6317-2.59 1.6317-1.545.0436-3.0738-.3214-4.4339-1.0584l-.7901 3.6604c1.52.613 3.147.9129 4.785.882 4.521.0441 7.462-2.2051 7.506-5.689zm11.238 5.4685h3.995l-3.468-16.714h-3.687c-.396-.0042-.783.1114-1.112.3317-.329.2202-.584.535-.732.9031l-6.497 15.4792h4.522l.877-2.5138h5.532zm-4.828-5.9095 2.282-6.2622 1.317 6.2622zm-18.1304-10.8045-3.5557 16.714h-4.302l3.5557-16.714z" fill="#1a1f71"/>
  <path d="m9.24099 39.7343v-2.646c.01871-.2013-.00238-.4044-.06205-.5976-.05968-.1931-.15676-.3725-.28567-.5278-.1289-.1553-.2871-.2835-.46548-.3772-.17839-.0937-.37345-.1511-.57397-.1688-.07888-.0066-.15817-.0066-.23705 0-.29116-.0092-.58003.0545-.84058.1854-.26055.1308-.4846.3248-.65195.5643-.14377-.2418-.35066-.4395-.59828-.5717-.24762-.1321-.52651-.1937-.80646-.178-.2464-.0104-.49154.0405-.71364.1482-.22209.1077-.41425.2689-.5594.4692v-.5336h-.83406v4.2336h.83406v-2.4255c-.01522-.1302-.0045-.2621.03155-.3881s.0967-.2435.17841-.3457c.08172-.1022.18287-.1871.29755-.2496.11469-.0626.24062-.1015.37045-.1147.06421-.0067.12894-.0067.19315 0 .61457 0 .96576.3969.96576 1.1025v2.4255h.83406v-2.4299c-.01522-.1302-.0045-.2621.03155-.3881s.0967-.2435.17841-.3457c.08172-.1022.18287-.1871.29755-.2496.11469-.0626.24062-.1015.37045-.1147.06421-.0067.12894-.0067.19315 0 .61457 0 .96575.3969.96575 1.1025v2.4255zm13.69621-4.1895h-1.5365v-1.2789h-.834v1.2789h-.878v.7497h.878v1.9845c0 .9702.3512 1.5435 1.4047 1.5435.3997-.009.7912-.1149 1.1414-.3087l-.2634-.7497c-.2364.1494-.511.226-.7902.2205-.1624.0134-.3235-.0385-.4478-.1443-.1243-.1059-.2016-.257-.2151-.4202-.0065-.0468-.0065-.0943 0-.1411v-2.0286h1.5365zm7.8138-.1323c-.2271-.0047-.4515.0497-.6515.1579-.2.1081-.3687.2664-.4898.4595v-.5292h-.8341v4.2336h.8341v-2.3814c0-.7056.3511-1.1466.9218-1.1466.193.0071.3845.0367.5707.0882l.2634-.7938c-.2012-.0512-.4072-.0808-.6146-.0882zm-11.8086.441c-.5139-.3157-1.1102-.4693-1.712-.441-1.0535 0-1.712.4851-1.712 1.323 0 .7056.4829 1.1025 1.4047 1.2348l.439.0441c.4829.0882.7902.2646.7902.4851 0 .3087-.3512.5292-1.0097.5292-.5033.0093-.9962-.1454-1.4047-.441l-.439.6615c.5335.3538 1.1606.5381 1.7998.5292 1.2292 0 1.8876-.5733 1.8876-1.3671s-.5267-1.1025-1.4486-1.2348l-.439-.0441c-.395-.0441-.7462-.1764-.7462-.441s.3512-.5292.834-.5292c.4592.0211.9084.1414 1.317.3528zm12.7744 1.764c-.0337.5509.1518 1.0926.5157 1.5061.3638.4135.8762.6649 1.4246.6989h.2546c.54.0285 1.0715-.1442 1.4925-.4851l-.439-.6615c-.3101.2541-.6973.3941-1.0974.3969-.3534-.0281-.6833-.1889-.9238-.4505-.2406-.2615-.3742-.6046-.3742-.9607s.1336-.6991.3742-.9607c.2405-.2616.5704-.4224.9238-.4505.4001.0028.7873.1428 1.0974.3969l.439-.6615c-.421-.3409-.9525-.5136-1.4925-.4851-.2569-.0321-.5176-.0128-.7671.0565-.2495.0694-.4829.1876-.6868.3478s-.3743.3593-.5015.5858-.2086.476-.2395.7342c-.0132.1305-.0132.262 0 .3925zm-5.9263-2.205c-1.2291 0-2.0632.882-2.0632 2.205-.0184.2721.0169.5452.1039.8035s.224.4968.4031.7018c.1791.2049.3968.3722.6405.4923s.5087.1906.7797.2074c.0744.0066.1494.0066.2238 0 .6194.0129 1.2243-.1896 1.7121-.5733l-.439-.6174c-.353.274-.7833.4284-1.2292.441-.3116.0119-.6161-.0952-.8523-.2997-.2362-.2046-.3865-.4914-.4207-.8028h3.1167v-.3528c0-1.323-.7901-2.205-1.9754-2.205zm0 .7938c.1378-.0065.2756.0143.4054.0614.1297.047.249.1193.351.2127.1019.0934.1845.206.243.3315.0586.1256.0919.2614.0981.3999v.0529h-2.2827c.0192-.2976.1544-.5756.3763-.7737.2218-.1981.5125-.3004.8089-.2847zm-11.3695 1.4112v-2.1168h-.8341v.5292c-.1607-.2053-.3682-.3686-.6052-.4761-.2369-.1075-.4961-.156-.7556-.1413-.5822 0-1.1404.2323-1.5521.6458-.4116.4136-.6428.9744-.6428 1.5592s.2312 1.1457.6428 1.5592c.4117.4135.9699.6458 1.5521.6458.2595.0147.5187-.0338.7556-.1412.237-.1075.4445-.2709.6052-.4762v.5292h.8341zm-3.4241 0c.0171-.2572.1087-.5038.2634-.7094.1547-.2057.3658-.3615.6074-.4482.2417-.0868.5033-.1007.7527-.0401.2494.0605.4758.193.6513.3811.1755.188.2925.4235.3366.6774.0441.254.0134.5153-.0884.752-.1017.2366-.2701.4383-.4843.5801-.2143.1419-.4651.2177-.7217.2183-.3416.0071-.672-.1221-.9189-.3594-.2469-.2372-.39-.5631-.3981-.9063-.0044-.0485-.0044-.097 0-.1455zm32.4406-2.205c-.2271-.0047-.4515.0497-.6515.1579-.2.1081-.3687.2664-.4898.4595v-.5292h-.8341v4.2336h.8341v-2.3814c0-.7056.3512-1.1466.9218-1.1466.193.0071.3845.0367.5707.0882l.2634-.7938c-.2012-.0512-.4072-.0808-.6146-.0882zm6.7603 3.7044c.0618-.0055.1237.01.1756.0441.0439 0 .0878.0441.1317.0882s.0878.0882.0878.1323.0439.0882.0439.1764c.0055.0621-.01.1242-.0439.1764-.0439.0441-.0439.0882-.0878.1323s-.0878.0882-.1317.0882-.0878.0441-.1756.0441c-.0618.0055-.1236-.01-.1756-.0441-.0439-.0441-.0878-.0441-.1317-.0882s-.0878-.0882-.0878-.1323-.0439-.0882-.0439-.1764c-.0054-.0621.01-.1242.0439-.1764.0439-.0441.0439-.0882.0878-.1323s.0878-.0882.1317-.0882.1317-.0441.1756-.0441zm0 .7497c.0238.0029.048.0004.0708-.0072s.0436-.0202.0609-.0369c.0226-.002.0438-.0119.0599-.028.016-.0162.0259-.0375.0279-.0602l.0878-.0882c0-.0441.0439-.0882.0439-.1323.0029-.0239.0004-.0482-.0072-.0711s-.0201-.0438-.0367-.0612c-.002-.0227-.0119-.044-.0279-.0601-.0161-.0162-.0373-.0261-.0599-.0281l-.0878-.0882c-.0439 0-.0878-.0441-.1317-.0441-.0238-.0029-.048-.0004-.0708.0072-.0227.0076-.0435.0203-.0609.0369-.0226.002-.0438.0119-.0599.0281-.016.0161-.0259.0374-.0279.0601l-.0878.0882c0 .0441-.0439.0882-.0439.1323-.0028.024-.0004.0482.0072.0711s.0201.0438.0367.0612c.002.0227.0119.044.028.0602.016.0161.0372.026.0598.028l.0878.0882c.0174.0167.0382.0293.0609.0369.0228.0076.047.0101.0708.0072zm.0439-.4851c.0238-.0029.048-.0004.0708.0072.0228.0077.0436.0203.0609.0369.0439.0441.0439.0441.0439.0882s0 .0441-.0439.0882c-.0237.024-.0545.0395-.0878.0441l.1317.1323h-.1317l-.1317-.1323h-.0439v.1323h-.0878v-.3969zm-.0878.0441v.0882h.1317v-.0882zm-9.9648-1.8081v-2.1168h-.8341v.5292c-.1606-.2053-.3682-.3686-.6051-.4761s-.4962-.156-.7557-.1413c-.5821 0-1.1404.2323-1.552.6458-.4117.4136-.6429.9744-.6429 1.5592s.2312 1.1457.6429 1.5592c.4116.4135.9699.6458 1.552.6458.2595.0147.5188-.0338.7557-.1412.2369-.1075.4445-.2709.6051-.4762v.5292h.8341zm-3.3802 0c.0171-.2572.1087-.5038.2634-.7094.1547-.2057.3658-.3615.6075-.4482.2416-.0868.5032-.1007.7526-.0401.2494.0605.4758.193.6513.3811.1755.188.2925.4235.3366.6774.0441.254.0134.5153-.0884.752-.1017.2366-.2701.4383-.4843.5801-.2143.1419-.4651.2177-.7217.2183-.8341.0441-1.317-.6174-1.317-1.4112zm11.8964 0v-3.7926h-.8341v2.205c-.1606-.2053-.3682-.3686-.6051-.4761s-.4962-.156-.7557-.1413c-.5821 0-1.1404.2323-1.552.6458-.4117.4136-.6429.9744-.6429 1.5592s.2312 1.1457.6429 1.5592c.4116.4135.9699.6458 1.552.6458.2595.0147.5188-.0338.7557-.1412.2369-.1075.4445-.2709.6051-.4762v.5292h.8341zm-3.4241 0c.0172-.2572.1087-.5038.2634-.7094.1547-.2057.3658-.3615.6075-.4482.2416-.0868.5032-.1007.7526-.0401.2494.0605.4758.193.6513.3811.1755.188.2925.4235.3366.6774.0441.254.0134.5153-.0884.752-.1017.2366-.27.4383-.4843.5801-.2143.1419-.4651.2177-.7217.2183-.1702.0035-.3395-.0268-.498-.0893-.1584-.0625-.3031-.1559-.4255-.2748-.1224-.1188-.2202-.2609-.2877-.4179s-.1035-.3259-.1058-.4969c0-.0485 0-.097 0-.1455z" fill="#000"/>
  <path d="m33.2093 3.39572h-15.2326v24.96078h15.2326z" fill="#ff5f00"/>
  <path d="m19.557 15.8761c.0004-2.4013.5415-4.7714 1.5831-6.93272 1.0415-2.16134 2.5563-4.05791 4.4309-5.54765-2.3311-1.84137-5.131-2.986629-8.0795-3.3048756-2.9485-.3182464-5.9267.2033656-8.59405 1.5052056-2.66735 1.30185-4.91626 3.33139-6.48966 5.85663-1.5734 2.52523-2.40779 5.44431-2.40779 8.42341s.83439 5.8982 2.40779 8.4234 3.82231 4.5548 6.48966 5.8566c2.66735 1.3019 5.64555 1.8235 8.59405 1.5052 2.9485-.3182 5.7484-1.4635 8.0795-3.3048-1.8746-1.4898-3.3894-3.3864-4.4309-5.5477-1.0416-2.1613-1.5827-4.5314-1.5831-6.9327z" fill="#eb001b"/>
  <g fill="#f79e1b">
    <path d="m49.6271 25.7104v-.5292h.2195v-.0882h-.5267v.0882h.2194v.5292zm1.0536 0v-.6174h-.1756l-.1756.4411-.1756-.4411h-.1756v.6174h.1317v-.4851l.1756.3969h.1317l.1756-.3969v.4851z"/>
    <path d="m51.1636 15.8761c-.0033 2.9752-.8387 5.8896-2.411 8.4109s-3.8182 4.548-6.4816 5.8491c-2.6634 1.301-5.6371 1.824-8.582 1.5094-2.945-.3147-5.7426-1.4543-8.0741-3.289 1.8749-1.4896 3.3899-3.3861 4.4314-5.5475s1.5826-4.5316 1.5826-6.9329-.5411-4.7715-1.5826-6.93291c-1.0415-2.16139-2.5565-4.05793-4.4314-5.54746 2.3315-1.83471 5.1291-2.974367 8.0741-3.289018 2.9449-.31465 5.9186.208366 8.582 1.509418 2.6634 1.30104 4.9093 3.32776 6.4816 5.84906s2.4077 5.43571 2.411 8.41091z"/>
  </g>
</svg>
