<svg xmlns="http://www.w3.org/2000/svg" viewBox="0 0 40 40">
  <defs>
    <style>
      .a {
        fill: none;
        stroke: #dfdfdf;
        stroke-miterlimit: 10;
      }

      .b {
        fill: #212121;
      }
    </style>
  </defs>
  <g>
    <g>
      <path class="b" d="M14.81,14a4.08,4.08,0,0,1-4.15,4.11,4.12,4.12,0,1,1,0-8.24A4.09,4.09,0,0,1,14.81,14Zm-.55,0a3.6,3.6,0,1,0-7.2,0,3.6,3.6,0,1,0,7.2,0Z"/>
      <path class="b" d="M18.48,18V9.9l6.72,7V10h.53v8.2l-6.72-7V18Z"/>
      <path class="b" d="M33.49,10.47H30.18v2.9h3.24v.48H30.18v3.66h3.31V18H29.65V10h3.84Z"/>
    </g>
    <g>
      <path class="b" d="M10.59,23.34a1.71,1.71,0,0,0-1.57-1,1.42,1.42,0,0,0-1.49,1.49c0,.86.6,1.15,1.4,1.55a11.27,11.27,0,0,1,1.59.84,1.76,1.76,0,0,1,.85,1.55,2.39,2.39,0,0,1-2.49,2.34A2.29,2.29,0,0,1,7,29.28a2.64,2.64,0,0,1-.52-.88L7,28.19A2.76,2.76,0,0,0,7.4,29a1.92,1.92,0,0,0,1.5.68,1.86,1.86,0,0,0,1.93-1.85,1.41,1.41,0,0,0-.78-1.26c-.23-.13-.7-.37-1.36-.7a3,3,0,0,1-1.46-1.05A1.72,1.72,0,0,1,7,23.87a1.94,1.94,0,0,1,2.05-2A2.15,2.15,0,0,1,11,23Z"/>
      <path class="b" d="M16,22v8h-.53V22Z"/>
      <path class="b" d="M20.85,29.51h4.74V30H20l4.87-7.52h-4.4V22h5.29Z"/>
      <path class="b" d="M33.49,22.47H30.18v2.9h3.24v.48H30.18v3.66h3.31V30H29.65V22h3.84Z"/>
    </g>
  </g>
</svg>
