<svg viewBox="0 0 40 40" fill="none" xmlns="http://www.w3.org/2000/svg">
<path d="M16.2791 14.196H15.2471V18H14.7191V9.996H16.2671C16.9471 9.996 17.5071 10.18 17.9471 10.548C18.3871 10.908 18.6071 11.42 18.6071 12.084C18.6071 12.74 18.3951 13.256 17.9711 13.632C17.5471 14.008 16.9831 14.196 16.2791 14.196ZM15.2471 10.476V13.716H16.3031C16.8311 13.716 17.2551 13.572 17.5751 13.284C17.8951 12.988 18.0551 12.592 18.0551 12.096C18.0551 11.592 17.8911 11.196 17.5631 10.908C17.2431 10.62 16.7951 10.476 16.2191 10.476H15.2471ZM25.7145 9.996V10.476H22.4025V13.38H25.6425V13.86H22.4025V17.52H25.7145V18H21.8745V9.996H25.7145ZM13.0074 22.476H10.9314V30H10.4034V22.476H8.32738V21.996H13.0074V22.476ZM16.055 21.996H16.583V30H16.055V21.996ZM24.3066 22.476H22.2306V30H21.7026V22.476H19.6266V21.996H24.3066V22.476ZM31.1942 21.996V22.476H27.8822V25.38H31.1222V25.86H27.8822V29.52H31.1942V30H27.3542V21.996H31.1942Z" fill="black"/>
</svg>
