<svg xmlns="http://www.w3.org/2000/svg" viewBox="0 0 90 106">
  <defs>
    <style>
      .a {
        fill: none;
      }

      .a, .b {
        stroke: #e0ae36;
        stroke-miterlimit: 10;
        stroke-width: 2px;
      }

      .b {
        fill: #fff;
      }
    </style>
  </defs>
  <title>bag</title>
  <g>
    <path class="a" d="M45,63.67C57,63.67,60.22,59,65.25,48.86,70,39.3,76.42,35.35,76.42,35.35L88.55,85.66A15.64,15.64,0,0,1,73.41,105H16.59A15.64,15.64,0,0,1,1.44,85.68L13.51,35.35s6.53,4,11.27,13.52C29.81,59,33.06,63.67,45,63.67Z"/>
    <path class="a" d="M13.51,35.35l2-9.71C18.37,11.36,30.77,1,45,1s26.6,10.36,29.48,24.63l2,9.71"/>
    <path class="b" d="M36.28,56.4v13a5.5,5.5,0,0,0,5.48,5.51h6.51a5.5,5.5,0,0,0,5.48-5.51v-13Z"/>
    <path class="a" d="M45,60.65a4.17,4.17,0,1,0,4.15,4.17A4.16,4.16,0,0,0,45,60.65Z"/>
  </g>
</svg>
