<svg id="Layer_1" data-name="Layer 1" xmlns="http://www.w3.org/2000/svg" viewBox="0 0 168 57"><defs><style>.cls-1{fill:#fff;fill-rule:evenodd;}</style></defs><title>Golovina_logo</title><path class="cls-1" d="M153.37,40.51c-1.89-.11-7.47,0-12-.61-3.42-.44-6.23-1.24-6.22-2.82a12.37,12.37,0,0,1,2.38-2.87c-2.14-2.49-2.91.45-4.33,1.79l-.7-1.09c-1.1-1.32-2.76-1.28-4.18-1.15a4.84,4.84,0,0,0-.71.1,10.06,10.06,0,0,0-4.1,2.08c-2.26,1.94,0,4.15,2.83,3.9a13.4,13.4,0,0,0,4-.73l.47-.19.3-.14,1-.56c.45-.16.57-.64,1,0,.9,1.51,4.49,2.22,6.08,2.48a30.73,30.73,0,0,0,4.78.51l4.15.09h4.12c3.35.06,7.91-.2,11.07-.13,2.66,0,1.92,0,4.73.08-.22-.09-11.4-.59-14.63-.72m-29.5-2.09a.72.72,0,0,1,0-.74,5.81,5.81,0,0,1,2.58-1.91c1.94-.89,3.42-1,5.08.14a1.59,1.59,0,0,1,.46.56c-.66,1.18-3.89,1.83-5.31,2S124.43,38.83,123.87,38.42Z" transform="translate(0)"/><path class="cls-1" d="M103.17,24.45c-.11,1.38.29,3.72,2,3.59l-.12-1.31c0-.26,0-.63,0-.88a3.45,3.45,0,0,1,2.19-.69,11.81,11.81,0,0,1,5.79,1.4,13.92,13.92,0,0,0-4.95-2.4c-2.15-.55-3-.11-5,.29" transform="translate(0)"/><path class="cls-1" d="M112.53,39.18c.28-.37.22-.26.77-.93a4.71,4.71,0,0,1,2-1.31c1,.49,1.08,2.62,2.53,2.58.28,0,.33-.06.3-.21-.08-.33-.32-.15-.44-.35-.25-.45-1-2.57-1.17-2.68a1.06,1.06,0,0,0-.18-.22c-.6-.46-.93-.34-2,.27-.82.43-.92.26-.89.11.12-.63-.26-1-1-1.13-.39,1-2.05,3.4-1,4.19.42.31.6.26.74.12s.21-.28.35-.44" transform="translate(0)"/><path class="cls-1" d="M106.87,35.17a.84.84,0,0,0-.08-.21l-.49-1a1.21,1.21,0,0,1,0-.18c0-.05,0-.13,0-.18L105.88,32c-.4,0-.54,0-.61.82s.06.8,0,1.24a4,4,0,0,1-.69,1.85c-.39.5-.68,1.07-1.24,1.89s-.63,1-.48,1.26c.7.74.66.79,1.05.71l.88-.94.17-.19C105.54,38,107.11,36.19,106.87,35.17Z" transform="translate(0)"/><path class="cls-1" d="M56.93,32.69a16.43,16.43,0,0,0-9.36-3,63.17,63.17,0,0,0-12.16,1.15c-1.8.33-2.13.33-5.62,1,.23.11.39.24.57.32,1.82.8,8.38,3.38,9.66,7.61,1.44,8.25-8.44,14.51-18.28,15.88a21.82,21.82,0,0,1-8.32-.34A17.12,17.12,0,0,1,8.89,53S5.35,50.84,3.1,45a26.39,26.39,0,0,1-.85-11.85C3.6,26.7,5.65,22.81,9.76,17.55A48.41,48.41,0,0,1,20.21,8.31C27,4,33.22,1.41,41.2,1a33,33,0,0,1,7.44.82c.6-.09.66-.19.62-1-4.07-.72-4.65-1-9.07-.8a38.34,38.34,0,0,0-19.6,6.07c-.07,0-1.67,1-3.29,2.19s-3,2.33-3.33,2.59A49.19,49.19,0,0,0,4.81,21.44,29.79,29.79,0,0,0,2,27.22,26.71,26.71,0,0,0,.6,42.91a20.48,20.48,0,0,0,2.56,6.43,21.1,21.1,0,0,0,2.35,2.93,16.8,16.8,0,0,0,1.32,1h0a17,17,0,0,0,6.07,3,26.32,26.32,0,0,0,9.13.49c13.45-.72,25.49-13.27,17.85-20.65a18.14,18.14,0,0,0-5.81-3.7,27.18,27.18,0,0,1,2.76-.67C50.08,29.32,55.27,32.35,56.93,32.69Z" transform="translate(0)"/><path class="cls-1" d="M97.9,9.08c-1-1.15-2.43-.52-3.83.25a44.27,44.27,0,0,0-7.39,6.11c-1.42,1.44-2.73,3-4,4.45s-2.46,2.95-3.57,4.27l-1.54,2.07c-1.87,2.48-3.47,5.31-5.62,6.39-1.79.9-6.84,3.51-8.64,4a2,2,0,0,1-1,0C60.19,36.17,58,33,54.55,33.82a3.1,3.1,0,0,0-1.21.56,3.86,3.86,0,0,0-.92,1.36c-.47,2.24.06,3.28,1.85,4a2.9,2.9,0,0,0,.74.11c.28,0,.56,0,1,0a8.62,8.62,0,0,0,1.88-.25A21.23,21.23,0,0,0,59.92,39c1.61-.69,3.76-1.51,5.37-2.11a49.69,49.69,0,0,0,5-2.06h0l.23-.11.12-.06h0l.34-.17,1.14-.59c-.79,2.22-2.94,5.35-2.06,7.25.83-.54.32.61.84-1.36,1.19-3.2,1.35-3,2.42-5.81.83-1.13.89-.88,4.44-3.37a77.08,77.08,0,0,0,6.7-5.4C85.87,23.93,91,18.79,91.7,18,92.76,16.89,99,10.84,97.9,9.08ZM55.84,38.21a2,2,0,0,1-1.4-1.16,1.54,1.54,0,0,1,0-.9l.08-.26A1.73,1.73,0,0,1,56.4,35c1.5.2,2.25.62,3.71,2.3C59,37.9,57.2,38.64,55.84,38.21ZM96.56,11c-1.94,3.41-16.8,18-20.22,19.24.57-.89.52-.77,1-1.63A105,105,0,0,1,86.22,18c1.57-1.55.71-.71,1.69-1.69,1.3-1.31,4.67-4.66,7.24-6.11a2.42,2.42,0,0,1,1.69-.36C97,10.1,96.73,10.68,96.56,11Z" transform="translate(0)"/><path class="cls-1" d="M97.13,35.2a19.65,19.65,0,0,1-3.62,3c-.37.19-.7.14-.84-.06.06-1.25.42-2.09.49-3.45-2-.58-1.24.61-2.83,1.77a19.25,19.25,0,0,1-5.18,2c.07-.32.14-.35.58-1.84.34-2.49-2.1-2.83-2.91-2.84a4.07,4.07,0,0,0-2,.46,3.24,3.24,0,0,0-1.41,2c-.29,1,0,3,1.56,3.32a6.93,6.93,0,0,0,3.24-.17,56.52,56.52,0,0,0,7.06-1.57c1.45,2.68,2.67,2,5.06.25a26.64,26.64,0,0,0,3.82-3.51C99.07,33.8,98,34.36,97.13,35.2Zm-16,3.29a1.79,1.79,0,0,1-.74-1.64A2.19,2.19,0,0,1,82.6,35c1.78,0,2.62,1.06,1.19,2.53-.61.64-.74.69-.86.74A2.62,2.62,0,0,1,81.09,38.49Z" transform="translate(0)"/></svg>