<svg xmlns="http://www.w3.org/2000/svg" width="40" height="40" viewBox="0 0 40 40">
  <defs>
    <style>
      .cls-1 {
        fill: #282828;
        fill-rule: evenodd;
      }
    </style>
  </defs>
  <path class="cls-1" d="M14,12h3a2,2,0,0,1,2,2v3a2,2,0,0,1-2,2H14a2,2,0,0,1-2-2V14A2,2,0,0,1,14,12Zm9,0h3a2,2,0,0,1,2,2v3a2,2,0,0,1-2,2H23a2,2,0,0,1-2-2V14A2,2,0,0,1,23,12Zm0,9h3a2,2,0,0,1,2,2v3a2,2,0,0,1-2,2H23a2,2,0,0,1-2-2V23A2,2,0,0,1,23,21Zm-9,0h3a2,2,0,0,1,2,2v3a2,2,0,0,1-2,2H14a2,2,0,0,1-2-2V23A2,2,0,0,1,14,21Z"/>
</svg>
