<svg xmlns="http://www.w3.org/2000/svg" viewBox="0 0 40 40">
  <defs>
    <style>
      .a {
        fill: #fff;
      }
    </style>
  </defs>
  <title>size</title>
  <g>
    <path class="a" d="M15.79,18.91,18.12,15h1.63L16.58,20l3.23,5H18.21l-2.39-4-2.39,4H11.8L15,20,11.87,15h1.61Z"/>
    <path class="a" d="M26.85,22.47a1.47,1.47,0,0,0-.51-1.14,4.33,4.33,0,0,0-1.82-.77,6,6,0,0,1-2.46-1.11,2.3,2.3,0,0,1-.88-1.84,2.42,2.42,0,0,1,1-1.95,3.78,3.78,0,0,1,2.47-.78,3.68,3.68,0,0,1,2.6.9,2.64,2.64,0,0,1,.93,2.08v0H26.83a1.84,1.84,0,0,0-.58-1.42,2.34,2.34,0,0,0-1.66-.54,2.32,2.32,0,0,0-1.54.45,1.48,1.48,0,0,0-.54,1.19,1.31,1.31,0,0,0,.58,1.08,5.52,5.52,0,0,0,1.89.76,5.39,5.39,0,0,1,2.39,1.15,2.46,2.46,0,0,1,.82,1.88,2.3,2.3,0,0,1-1,1.93,4.2,4.2,0,0,1-2.57.73A4.45,4.45,0,0,1,22,24.31a2.44,2.44,0,0,1-1.11-2.16v0H22.2a1.67,1.67,0,0,0,.7,1.46,2.94,2.94,0,0,0,1.74.5,2.71,2.71,0,0,0,1.61-.43A1.36,1.36,0,0,0,26.85,22.47Z"/>
  </g>
</svg>
