<svg xmlns="http://www.w3.org/2000/svg" viewBox="0 0 16 16">
  <path class="a" d="M13.56,0H2.49A2.47,2.47,0,0,0,0,2.49V13.56A2.47,2.47,0,0,0,2.49,16H13.56A2.47,2.47,0,0,0,16,13.56V2.49A2.47,2.47,0,0,0,13.56,0Zm-.4,11.26H11.81c-.44,0-.49-.32-1.3-1.09s-1-.72-1.14-.72-.25.11-.25.37v1c0,.3-.17.42-.89.42A4.55,4.55,0,0,1,4.78,9.23,8.68,8.68,0,0,1,2.93,5.44a.29.29,0,0,1,.3-.29h1.2c.31,0,.43.09.54.42.55,1.61,1.53,3,1.94,3,.16,0,.17-.13.17-.46V6.5c0-.79-.45-.86-.45-1.15a.21.21,0,0,1,.24-.2H8.8c.26,0,.29.09.29.4V7.77c0,.25.05.35.16.35s.27-.08.52-.37A10.87,10.87,0,0,0,11.22,5.5a.44.44,0,0,1,.46-.29h1.2c.24,0,.34.13.29.36a14.3,14.3,0,0,1-1.52,2.59c-.13.2-.18.31,0,.5s.53.52.78.85a3.25,3.25,0,0,1,1,1.48C13.42,11.22,13.29,11.29,13.16,11.29Z" transform="translate(-0.02 -0.02)"/>
</svg>
