<svg xmlns="http://www.w3.org/2000/svg" viewBox="0 0 24 24">
  <defs>
    <style>
      .a {
        fill: none;
        stroke: #00E676;
        stroke-linecap: round;
        stroke-linejoin: round;
      }
    </style>
  </defs>
  <title>whatsapp</title>
  <g>
    <path class="a" d="M7.73,18.81c-.47-.3-2.79,1.42-3.14,1s1.19-2.79.89-3.2A7.82,7.82,0,0,1,4,12a8,8,0,1,1,8,8,7.5,7.5,0,0,1-1.66-.18"/>
    <path class="a" d="M10.34,8l.71,1.78a.22.22,0,0,1-.12.3.78.78,0,0,0-.24,1.24c.59.83,2.19,2.9,3.5,1.54a.26.26,0,0,1,.3-.06l1.9.83a.28.28,0,0,1,.12.36c-.41.83-2,3-6-.41S9.1,8.33,10,7.91C10.1,7.73,10.28,7.79,10.34,8Z"/>
  </g>
</svg>
