<svg viewBox="0 0 16 28"
  xmlns="http://www.w3.org/2000/svg">
  <path d="m8.12461 7.74646c-.77585 0-1.97683-.89822-3.24157-.86575-1.6686.02164-3.19904.9848-4.059916 2.51069-1.732374 3.0626-.446379 7.5862 1.243486 10.0753.82899 1.212 1.80677 2.5756 3.10339 2.5323 1.24349-.0541 1.71112-.8225 3.22031-.8225 1.49855 0 1.92369.8225 3.24159.79 1.3391-.0216 2.1893-1.2337 3.0077-2.4566.9459-1.4068 1.3391-2.7704 1.3604-2.8461-.0319-.0109-2.6039-1.0173-2.6358-4.0475-.0212-2.5323 2.03-3.74435 2.1257-3.79846-1.1691-1.74234-2.9653-1.93713-3.5923-1.98042-1.6368-.12986-3.00777.90904-3.77299.90904zm2.76329-2.55398c.6908-.84411 1.1478-2.02371 1.0203-3.19248-.9884.04329-2.17876.67096-2.89084 1.51507-.63768.74672-1.19034 1.94796-1.04155 3.09509 1.09469.08657 2.22129-.57357 2.91209-1.41768" fill="currentColor" />
</svg>
