<svg fill="none" viewBox="0 0 106 36"
  xmlns="http://www.w3.org/2000/svg">
  <path d="m3.32814 15c1.29363 0 2.10949.6281 2.5876 1.369l-1.10617.5998c-.29065-.4406-.82516-.7876-1.48143-.7876-1.13438 0-1.95953.8719-1.95953 2.053 0 1.1812.82515 2.0531 1.95953 2.0531.572 0 1.07831-.2346 1.35003-.4781v-.7594h-1.66888v-1.144h2.98143v2.3908c-.63736.7123-1.52821 1.1812-2.66258 1.1812-1.82814 0-3.32813994-1.2747-3.32813994-3.2439-.00034396-1.9778 1.49999994-3.2339 3.32813994-3.2339z"/>
  <path d="m12.8228 15c1.8938 0 3.2717 1.3504 3.2717 3.2346s-1.3779 3.2342-3.2717 3.2342c-1.8842 0-3.26248-1.35-3.26248-3.2342 0-1.8846 1.37828-3.2346 3.26248-3.2346zm0 1.1812c-1.1533 0-1.8939.8812-1.8939 2.053 0 1.1626.7406 2.0531 1.8939 2.0531s1.9031-.8908 1.9031-2.0531c.0003-1.1718-.7498-2.053-1.9031-2.053z"/>
  <path d="m19.8426 15.1032h1.3311v5.0813h2.644v1.1718h-3.9751z"/>
  <path d="m30.2659 15c1.8939 0 3.2721 1.3504 3.2721 3.2346s-1.3782 3.2342-3.2721 3.2342c-1.8842 0-3.2624-1.35-3.2624-3.2342.0003-1.8846 1.3782-3.2346 3.2624-3.2346zm0 1.1812c-1.1529 0-1.8938.8812-1.8938 2.053 0 1.1626.7409 2.0531 1.8938 2.0531 1.1533 0 1.9031-.8908 1.9031-2.0531.0004-1.1718-.7494-2.053-1.9031-2.053z"/>
  <path d="m36.4331 15.1032h1.5189l1.7346 4.8095 1.7249-4.8095h1.5189l-2.4094 6.2535h-1.6689z"/>
  <path d="m46.3215 15.1032h1.3315v6.2535h-1.3315z"/>
  <path d="m53.0328 17.1563v4.2h-1.3314v-6.2531h1.3689l2.8969 4.0501v-4.0501h1.3314v6.2535h-1.2843z"/>
  <path d="m65.3311 20.2784h-2.794l-.3935 1.0783h-1.4625l2.4191-6.2535h1.6688l2.4091 6.2535h-1.4529zm-2.4377-1.1533h2.072l-1.0315-2.869z"/>
  <path d="m81.2185 16.8563-1.7624 4.5h-.581l-1.7628-4.5v4.5h-1.3311v-6.2531h1.8656l1.5186 3.9001 1.5189-3.9001h1.8753v6.2535h-1.3407v-4.5004z"/>
  <path d="m90.5914 20.2784h-2.794l-.3935 1.0783h-1.4625l2.419-6.2535h1.6689l2.4091 6.2535h-1.4529zm-2.4377-1.1533h2.072l-1.0315-2.869z"/>
  <path d="m98.1364 19.1158h-.9754v2.2405h-1.3312v-6.2531h2.9251c1.3031 0 2.1001.853 2.1001 2.0156 0 1.1061-.694 1.6967-1.3689 1.8563l1.4059 2.3816h-1.5276zm.4214-2.869h-1.3972v1.725h1.3972c.5345 0 .9376-.3374.9376-.8627.0003-.5248-.4031-.8623-.9376-.8623z"/>
  <path d="m104.669 15.1032h1.331v6.2535h-1.331z"/>
</svg>
